<?xml version="1.0" encoding="utf-8"?>
<!-- Generator: Adobe Illustrator 26.3.1, SVG Export Plug-In . SVG Version: 6.00 Build 0)  -->
<svg version="1.1" id="レイヤー_1" xmlns="http://www.w3.org/2000/svg" xmlns:xlink="http://www.w3.org/1999/xlink" x="0px"
	 y="0px" viewBox="0 0 100 121.8" style="enable-background:new 0 0 100 121.8;" xml:space="preserve">
<style type="text/css">
	.st0{fill:#345684;}
	.st1{fill-rule:evenodd;clip-rule:evenodd;fill:#345684;}
</style>
<path id="iconmonstr-lock-3" class="st0" d="M61.8,56.8v-8c0-6.6-5.3-12-11.8-12s-11.8,5.4-11.8,12v8h-5.9v28h35.5v-28H61.8z
	 M52,72.3v4.6H48v-4.6c-1.9-1.1-2.5-3.5-1.4-5.5c1.1-1.9,3.5-2.6,5.4-1.5s2.5,3.5,1.4,5.5C53.1,71.4,52.6,71.9,52,72.3z M42.1,56.8
	v-8c0-4.4,3.5-8,7.9-8s7.9,3.6,7.9,8v8H42.1z"/>
<path class="st1" d="M50,0C31.3,14.5,19.5,15.2,0,15.2v58.5c0,23.4,17.8,29.5,50,48c32.2-18.6,50-24.7,50-48V15.2
	C80.5,15.2,68.7,14.5,50,0z M50,7.7c16,11.5,27.8,13.2,43.5,13.4v52.4c0,19.3-14.3,24.5-43.5,41.1C20.8,98,6.5,92.7,6.5,73.5V21.1
	C22.2,20.9,34,19.2,50,7.7z"/>
</svg>
