<?xml version="1.0" encoding="utf-8"?>
<!-- Generator: Adobe Illustrator 26.3.1, SVG Export Plug-In . SVG Version: 6.00 Build 0)  -->
<svg version="1.1" id="レイヤー_1" xmlns="http://www.w3.org/2000/svg" xmlns:xlink="http://www.w3.org/1999/xlink" x="0px"
	 y="0px" viewBox="0 0 100 96.8" style="enable-background:new 0 0 100 96.8;" xml:space="preserve">
<style type="text/css">
	.st0{fill:#2A6EBD;}
</style>
<g>
	<path class="st0" d="M94.7,20.3h-9.2V8.8c0-4.8-3.9-8.8-8.7-8.8H23.2c-4.8,0-8.8,3.9-8.8,8.8v11.5H5.3c-2.9,0-5.3,2.4-5.3,5.3v66
		c0,2.9,2.4,5.3,5.3,5.3h89.5c2.9,0,5.3-2.4,5.3-5.3v-66C100,22.6,97.6,20.3,94.7,20.3z M78.2,41.9C69.8,48.6,61.4,55.4,53,62.1
		c-1.9,1.5-4.7,1.5-6.6,0C38.2,55.6,30,49.1,21.8,42.5V8.8c0-0.8,0.7-1.4,1.4-1.4h53.6c0.8,0,1.4,0.7,1.4,1.4V41.9z M31.3,58.8
		c-4.5,3.7-9.1,7.3-13.7,11l-5.2,4.1l-3.3,2.6V41.1c6.1,4.8,12.1,9.7,18.2,14.5l3.3,2.6L31.3,58.8z M9.1,87.7v-2.3
		c9.2-7.4,18.4-14.8,27.7-22.2l9.7,7.7c1.9,1.5,4.7,1.5,6.6,0l10.3-8.2c9.2,7.3,18.5,14.7,27.7,22v3H9.6H9.1z M90.9,75.9
		c-6.1-4.9-12.2-9.7-18.2-14.6l-3.2-2.6l-0.7-0.6c7.4-5.9,14.8-11.9,22.2-17.8v21.9l0,8.5L90.9,75.9z M85.5,36v-6.6h5.4v2.3
		c-1,0.8-4.1,3.3-5.1,4.1C85.7,35.9,85.6,35.9,85.5,36z M14.5,33.9l0,2.8c-0.7-0.5-1.3-1.1-1.9-1.6c-1.1-0.9-2.3-1.8-3.4-2.7v-3h5.4
		V33.9z"/>
	<polygon class="st0" points="68.7,15.6 31.3,15.6 31.3,19.1 68.7,19.1 68.7,15.7 68.7,15.7 68.7,15.7 	"/>
	<polygon class="st0" points="68.7,26.6 31.3,26.6 31.3,29.7 31.3,30 68.7,30 68.7,29.7 68.7,26.7 68.7,26.6 68.7,26.6 	"/>
	<polygon class="st0" points="68.7,37.6 68.7,37.6 31.3,37.6 31.3,41 68.7,41 68.7,37.6 	"/>
</g>
</svg>
