<?xml version="1.0" encoding="utf-8"?>
<!-- Generator: Adobe Illustrator 26.3.1, SVG Export Plug-In . SVG Version: 6.00 Build 0)  -->
<svg version="1.1" id="レイヤー_1" xmlns="http://www.w3.org/2000/svg" xmlns:xlink="http://www.w3.org/1999/xlink" x="0px"
	 y="0px" viewBox="0 0 100 75.4" style="enable-background:new 0 0 100 75.4;" xml:space="preserve">
<style type="text/css">
	.st0{fill:#345684;}
</style>
<g>
	<path class="st0" d="M12.1,55.1h75.8c2.9,0,5.2-2.3,5.2-5.2V5.2c0-2.9-2.3-5.2-5.2-5.2H12.1C9.2,0,6.9,2.3,6.9,5.2v44.6
		C6.9,52.7,9.2,55.1,12.1,55.1z M14.9,7h70.2v39.8H14.9V7z"/>
	<path class="st0" d="M99.2,69.6l-9.3-8.3c-0.6-0.5-1.5-0.8-2.4-0.8h-75c-0.9,0-1.8,0.3-2.4,0.8l-9.3,8.3c-0.5,0.5-0.8,1-0.8,1.6
		v2.9c0,0.7,0.7,1.2,1.6,1.2h96.8c0.9,0,1.6-0.6,1.6-1.2v-2.9C100,70.6,99.7,70.1,99.2,69.6z M39.3,70.6L42,67h17.1l2.7,3.7H39.3z"
		/>
</g>
</svg>
