<?xml version="1.0" encoding="utf-8"?>
<!-- Generator: Adobe Illustrator 26.3.1, SVG Export Plug-In . SVG Version: 6.00 Build 0)  -->
<svg version="1.1" id="レイヤー_1" xmlns="http://www.w3.org/2000/svg" xmlns:xlink="http://www.w3.org/1999/xlink" x="0px"
	 y="0px" viewBox="0 0 100 79.2" style="enable-background:new 0 0 100 79.2;" xml:space="preserve">
<style type="text/css">
	.st0{fill:#345684;}
</style>
<path class="st0" d="M70.8,40.2v-9.5c-4.9-1.7-7.9-2.2-9.5-6c-1.6-3.7,0.3-6.3,2.5-10.9L57.1,7c-4.6,2.2-7.2,4.1-10.9,2.5
	c-3.7-1.6-4.2-4.7-6-9.5h-9.5c-1.7,4.8-2.2,7.9-6,9.5h0c-3.8,1.6-6.3-0.3-10.9-2.5L7,13.7c2.2,4.6,4.1,7.2,2.5,10.9
	c-1.6,3.8-4.7,4.2-9.5,6v9.5c4.8,1.7,7.9,2.2,9.5,6c1.6,3.8-0.3,6.4-2.5,10.9l6.7,6.7c4.6-2.2,7.2-4.1,10.9-2.5h0
	c3.8,1.6,4.2,4.7,6,9.5h9.5c1.7-4.8,2.2-7.9,6-9.5h0c3.7-1.5,6.3,0.3,10.9,2.5l6.7-6.7c-2.2-4.6-4.1-7.2-2.5-10.9
	C62.9,42.4,66,41.9,70.8,40.2z M35.4,47.2c-6.5,0-11.8-5.3-11.8-11.8s5.3-11.8,11.8-11.8s11.8,5.3,11.8,11.8S41.9,47.2,35.4,47.2z
	 M100,64.7v-4.5c-2.3-0.8-3.7-1-4.5-2.8c-0.7-1.8,0.1-3,1.2-5.2l-3.2-3.2c-2.2,1-3.4,1.9-5.1,1.2c-1.8-0.7-2-2.2-2.8-4.5h-4.5
	c-0.8,2.3-1,3.7-2.8,4.5c-1.8,0.7-3-0.1-5.1-1.2L70,52.3c1,2.2,1.9,3.4,1.2,5.2s-2.2,2-4.5,2.8v4.5c2.3,0.8,3.7,1,4.5,2.8
	c0.7,1.8-0.2,3-1.2,5.2l3.2,3.2c2.2-1,3.4-1.9,5.1-1.2c1.8,0.7,2,2.2,2.8,4.5h4.5c0.8-2.3,1-3.7,2.8-4.5h0c1.8-0.7,2.9,0.1,5.1,1.2
	l3.2-3.2c-1-2.2-1.9-3.4-1.2-5.1C96.3,65.8,97.7,65.6,100,64.7z M83.3,68.1c-3.1,0-5.6-2.5-5.6-5.6c0-3.1,2.5-5.6,5.6-5.6
	c3.1,0,5.6,2.5,5.6,5.6C88.9,65.6,86.4,68.1,83.3,68.1z"/>
</svg>
