<?xml version="1.0" encoding="utf-8"?>
<!-- Generator: Adobe Illustrator 26.3.1, SVG Export Plug-In . SVG Version: 6.00 Build 0)  -->
<svg version="1.1" id="レイヤー_1" xmlns="http://www.w3.org/2000/svg" xmlns:xlink="http://www.w3.org/1999/xlink" x="0px"
	 y="0px" viewBox="0 0 25 29.2" style="enable-background:new 0 0 25 29.2;" xml:space="preserve">
<style type="text/css">
	.st0{fill:#D60000;}
</style>
<path id="Icon_metro-file-pdf" class="st0" d="M23.9,6.2c0.3,0.4,0.6,0.8,0.8,1.2C24.9,7.9,25,8.4,25,8.9v18.8
	c0,0.9-0.7,1.6-1.5,1.6c0,0,0,0,0,0H1.6c-0.9,0-1.6-0.7-1.6-1.5c0,0,0,0,0,0v-26C0,0.7,0.7,0,1.5,0c0,0,0,0,0,0h14.6
	c0.5,0,1,0.1,1.4,0.3c0.5,0.2,0.9,0.4,1.2,0.8L23.9,6.2z M16.7,2.2v6.1h6.1c-0.1-0.2-0.2-0.5-0.4-0.7l-5.1-5.1
	C17.1,2.4,16.9,2.3,16.7,2.2z M22.9,27.1V10.4h-6.8c-0.9,0-1.6-0.7-1.6-1.5c0,0,0,0,0,0V2.1H2.1v25H22.9L22.9,27.1z M14.6,17.4
	c0.4,0.3,0.9,0.6,1.4,0.9c0.6-0.1,1.3-0.1,1.9-0.1c1.6,0,2.6,0.3,2.9,0.8c0.2,0.3,0.2,0.6,0,0.8c0,0,0,0,0,0l0,0v0
	c-0.1,0.4-0.4,0.6-1.2,0.6c-0.6,0-1.3-0.1-1.9-0.3c-0.7-0.2-1.4-0.5-2.1-0.9c-2.2,0.2-4.3,0.7-6.4,1.3c-1.7,2.8-3,4.3-3.9,4.3
	c-0.2,0-0.3,0-0.5-0.1l-0.4-0.2c0,0,0,0-0.1-0.1c-0.1-0.2-0.2-0.4-0.1-0.6c0.2-0.6,0.5-1.1,0.9-1.5c0.6-0.6,1.3-1.2,2.1-1.6
	c0.1-0.1,0.3-0.1,0.3,0c0,0,0,0,0,0.1c0,0,0,0,0,0.1c0.6-0.9,1.1-2,1.7-3.2c0.7-1.4,1.3-2.8,1.7-4.3c-0.3-0.8-0.4-1.7-0.5-2.6
	c-0.1-0.7-0.1-1.4,0.1-2.1c0.1-0.4,0.3-0.6,0.7-0.6h0.4c0.2,0,0.4,0.1,0.6,0.2c0.2,0.3,0.3,0.7,0.1,1.1c0,0,0,0.1-0.1,0.1
	c0,0,0,0.1,0,0.1v0.5c0,1-0.1,2.1-0.2,3.1C12.6,15.1,13.4,16.4,14.6,17.4L14.6,17.4z M5.2,24.1c0.9-0.7,1.7-1.6,2.2-2.6
	c-0.5,0.4-1,0.9-1.4,1.4C5.7,23.3,5.4,23.7,5.2,24.1z M11.7,9.2c-0.2,0.7-0.2,1.4,0,2.1c0-0.1,0-0.3,0.1-0.7c0,0,0-0.3,0.1-0.7
	c0,0,0-0.1,0.1-0.1c0,0,0,0,0,0c0,0,0,0,0,0c0,0,0,0,0,0C11.9,9.5,11.8,9.3,11.7,9.2C11.7,9.1,11.7,9.1,11.7,9.2L11.7,9.2L11.7,9.2z
	 M9.6,19.9c1.5-0.6,3-1,4.6-1.3c-0.1-0.1-0.1-0.1-0.2-0.2c-0.1-0.1-0.2-0.1-0.3-0.2c-0.9-0.8-1.6-1.8-2.1-2.9
	c-0.4,1.1-0.8,2.2-1.4,3.2C10,19.2,9.8,19.6,9.6,19.9L9.6,19.9z M20.2,19.7c-0.7-0.4-1.5-0.5-2.3-0.4c0.6,0.3,1.3,0.4,2,0.5
	C20,19.7,20.1,19.7,20.2,19.7C20.2,19.7,20.2,19.7,20.2,19.7L20.2,19.7z"/>
</svg>
