<?xml version="1.0" encoding="utf-8"?>
<!-- Generator: Adobe Illustrator 26.3.1, SVG Export Plug-In . SVG Version: 6.00 Build 0)  -->
<svg version="1.1" id="レイヤー_1" xmlns="http://www.w3.org/2000/svg" xmlns:xlink="http://www.w3.org/1999/xlink" x="0px"
	 y="0px" viewBox="0 0 19.2 25" style="enable-background:new 0 0 19.2 25;" xml:space="preserve">
<style type="text/css">
	.st0{fill:#2A6EBD;}
</style>
<g>
	<g>
		<path class="st0" d="M4.7,25c-0.3-0.1-0.7-0.3-0.8-0.6l-3.6-5.8C0,18.2,0,17.9,0,17.5c0.1-0.4,0.3-0.7,0.6-0.8l1.2-0.7
			c0,0,0,0,0,0c0.4-2.2,0.8-5.7,0.5-6.8c0-0.2-0.1-0.4-0.2-0.6C1.9,7.7,1.5,6.7,2.2,6c0.6-0.5,1.1-0.6,1.5-0.6
			C4.4,5.5,5.1,6,5.7,6.9c0.6,0.8,0.6,1.5,0.6,2.2c0,0.2,0,0.4,0,0.5c0.2,1.2,0.4,2,0.8,2.3c0,0,0,0,0,0c0.2,0.2,0.6,0.1,0.9-0.1
			l7.7-4.8c0.5-0.3,1.1-0.4,1.7-0.3c0.6,0.1,1.2,0.4,1.5,0.9c0.3,0.5,0.4,1.1,0.2,1.7c-0.2,0.5-0.6,1-1.1,1.3L14.4,13
			c0.1,0.1,0.3,0.2,0.4,0.4c0.4,0.7,0.5,1.4,0.2,2.1c0.1,0.1,0.2,0.2,0.3,0.3c0.5,0.7,0.5,1.6,0.1,2.2c0,0,0,0.1,0.1,0.1
			c0.3,0.5,0.4,1.1,0.3,1.6c-0.1,0.6-0.4,1.1-0.9,1.4l-1.7,1.1c0,0,0,0,0,0c-1.5,0.8-2.4,0.9-3.2,0.9c-0.1,0-0.2,0-0.3,0
			c-0.7,0-1.3,0.1-2,0.5l-1.9,1.2C5.4,25,5,25,4.7,25z M1.4,17.8L5,23.6l1.9-1.2c0.9-0.6,1.8-0.6,2.6-0.7c0.1,0,0.2,0,0.3,0
			c0.7,0,1.4-0.1,2.6-0.8l1.7-1.1c0.4-0.3,0.4-0.8,0.2-1.1c-0.1-0.1-0.1-0.2-0.2-0.3c-0.2-0.1-0.3-0.3-0.3-0.5
			c0-0.2,0.1-0.4,0.2-0.5c0.3-0.2,0.3-0.7,0.1-1c-0.1-0.1-0.2-0.3-0.3-0.3c-0.2-0.1-0.3-0.3-0.3-0.5c0-0.2,0-0.4,0.2-0.6
			c0.2-0.2,0.3-0.6,0-1c-0.2-0.3-0.7-0.2-0.8-0.2c-0.3,0.1-0.6-0.1-0.8-0.4c-0.1-0.3,0-0.7,0.3-0.8l5-3.1c0.2-0.1,0.4-0.4,0.5-0.6
			c0.1-0.2,0.1-0.4,0-0.5c-0.1-0.2-0.4-0.3-0.5-0.3c-0.2,0-0.5,0-0.7,0.1l-7.7,4.8c-1,0.6-2,0.6-2.6-0.1l0,0
			c-0.6-0.6-0.9-1.6-1.2-3.1C5,9.6,5,9.4,5,9.2c0-0.5-0.1-1-0.4-1.4C4.1,7,3.7,6.8,3.5,6.8c-0.1,0-0.2,0-0.4,0.2
			c0,0.2,0.2,0.7,0.3,1c0.1,0.3,0.2,0.5,0.3,0.8c0.5,1.7-0.4,6.9-0.5,7.4c0,0,0,0,0,0c-0.1,0.4-0.3,0.7-0.6,0.9L1.4,17.8z
			 M12.7,21.6L12.7,21.6L12.7,21.6z"/>
	</g>
	<g>
		<path class="st0" d="M11.2,6.8l0.2-6.4c0-0.1-0.1-0.2-0.2-0.2L9.4,0.5c-0.1,0-0.2,0.1-0.1,0.2L11,6.8C11.1,7,11.2,6.9,11.2,6.8z"
			/>
	</g>
	<g>
		<path class="st0" d="M13.4,6.1l4.1-4.8c0.1-0.1,0-0.2,0-0.2l-1.6-1c-0.1,0-0.2,0-0.2,0.1L13.2,6C13.2,6.1,13.3,6.2,13.4,6.1z"/>
	</g>
</g>
</svg>
