<?xml version="1.0" encoding="utf-8"?>
<!-- Generator: Adobe Illustrator 26.3.1, SVG Export Plug-In . SVG Version: 6.00 Build 0)  -->
<svg version="1.1" id="レイヤー_1" xmlns="http://www.w3.org/2000/svg" xmlns:xlink="http://www.w3.org/1999/xlink" x="0px"
	 y="0px" viewBox="0 0 100 100" style="enable-background:new 0 0 100 100;" xml:space="preserve">
<style type="text/css">
	.st0{fill:#2A6EBD;}
	.st1{fill:#FFFFFF;}
</style>
<circle class="st0" cx="50" cy="50" r="50"/>
<g>
	<path class="st1" d="M50,56.9c1.4,0,2.7-0.5,3.6-1.5l5.1-5.1l16.2-16.2c-0.2-1.4-1.5-2.5-3-2.5H28c-1.5,0-2.7,1.1-3,2.5l21.3,21.3
		C47.3,56.4,48.6,56.9,50,56.9z"/>
	<polygon class="st1" points="36.1,50.3 29.6,43.8 25,39.2 25,39.2 25,39.2 25,61.4 	"/>
	<path class="st1" d="M61.3,52.9L61.3,52.9L61.3,52.9L56.2,58c-1.7,1.7-3.9,2.6-6.2,2.6c-2.3,0-4.5-0.9-6.2-2.6l-5.1-5.1h0l0,0l0,0
		L25.2,66.4c0.4,1.2,1.5,2,2.8,2h44c1.3,0,2.4-0.8,2.8-2L61.3,52.9L61.3,52.9z"/>
	<polygon class="st1" points="75,39.2 75,39.2 75,39.2 63.9,50.3 75,61.4 75,48.4 	"/>
</g>
</svg>
