<?xml version="1.0" encoding="utf-8"?>
<!-- Generator: Adobe Illustrator 26.3.1, SVG Export Plug-In . SVG Version: 6.00 Build 0)  -->
<svg version="1.1" id="レイヤー_1" xmlns="http://www.w3.org/2000/svg" xmlns:xlink="http://www.w3.org/1999/xlink" x="0px"
	 y="0px" viewBox="0 0 100 120" style="enable-background:new 0 0 100 120;" xml:space="preserve">
<style type="text/css">
	.st0{fill:#345684;}
</style>
<path class="st0" d="M10,110V10h80v57.7C90,88.2,60,80,60,80s7.6,30-13.2,30C46.8,110,10,110,10,110z M100,71.9V0H0v120h50.9
	C66.8,120,100,83.9,100,71.9z M45.2,75C56.5,54.8,64.3,44.3,75,35l-1.4-3.2c-13,8.1-20,14.2-30.5,26.2c-5.6-4-8.8-5.8-13.8-8.3
	l-4.3,4C33.6,61.6,38.2,66.8,45.2,75z"/>
</svg>
