<?xml version="1.0" encoding="utf-8"?>
<!-- Generator: Adobe Illustrator 26.3.1, SVG Export Plug-In . SVG Version: 6.00 Build 0)  -->
<svg version="1.1" id="レイヤー_1" xmlns="http://www.w3.org/2000/svg" xmlns:xlink="http://www.w3.org/1999/xlink" x="0px"
	 y="0px" viewBox="0 0 100 100" style="enable-background:new 0 0 100 100;" xml:space="preserve">
<style type="text/css">
	.st0{fill:#2A6EBD;}
	.st1{fill:#FFFFFF;}
</style>
<circle class="st0" cx="50" cy="50" r="50"/>
<g>
	<path class="st1" d="M42.1,36.9c1.6-1.5,1.6-4.1,0-5.6l-7.4-7.4C33,22,30,22,28.2,23.9L27,25.1l13.5,13.5
		C41,38,41.6,37.4,42.1,36.9z"/>
	<path class="st1" d="M59.7,61.2c-0.2,0.1-0.4,0.3-0.5,0.4c-2.1,1.6-6.3-1.6-12.7-8.1c-6.5-6.5-9.7-10.6-8.1-12.7
		c0.1-0.1,0.3-0.3,0.4-0.5L25.2,26.8l-1.5,1.5c-1,1-1.4,3.1-1.2,6.1c0,0.1,0,0.2,0,0.4c0,0,0,0.1,0,0.1c0.4,5,2.7,12,7.9,19.4
		c1.9,2.8,4.2,5.6,7,8.3c14.6,14.6,31.1,16.9,34.3,13.7l1.4-1.4l0,0l0,0l0,0L59.7,61.2z"/>
	<path class="st1" d="M76.1,65.2l-7.4-7.4c-1.6-1.6-4.1-1.5-5.6,0c-0.5,0.6-1.1,1.1-1.7,1.7c0,0,0,0,0,0l0,0c0,0,0,0,0,0L74.9,73
		l1.2-1.2C78,70,78,67,76.1,65.2z"/>
</g>
</svg>
