<?xml version="1.0" encoding="utf-8"?>
<!-- Generator: Adobe Illustrator 26.3.1, SVG Export Plug-In . SVG Version: 6.00 Build 0)  -->
<svg version="1.1" xmlns="http://www.w3.org/2000/svg" xmlns:xlink="http://www.w3.org/1999/xlink" x="0px" y="0px"
	 viewBox="0 0 88 88" style="enable-background:new 0 0 88 88;" xml:space="preserve">
<style type="text/css">
	.st0{display:none;}
	.st1{display:inline;}
	.st2{fill:#FEF032;}
	.st3{enable-background:new    ;}
	.st4{display:inline;fill:#FEF032;}
</style>
<g id="レイヤー_1" class="st0">
	<g class="st1">
		<path id="多角形_17" class="st2" d="M55.8,0l5.8,13.5l14.6-1.7l-1.7,14.6L88,32.2L79.2,44L88,55.8l-13.5,5.8l1.7,14.6
			l-14.6-1.7L55.8,88L44,79.2L32.2,88l-5.8-13.5l-14.6,1.7l1.7-14.6L0,55.8L8.8,44L0,32.2l13.5-5.8l-1.7-14.6l14.6,1.7L32.2,0
			L44,8.8L55.8,0z"/>
		<g>
			<g class="st3">
				<g>
					<path d="M28.8,27.2c0,1.1-0.3,2-1,2.6c-0.7,0.6-1.6,0.9-2.8,0.9h-0.8V34h-2.7V24H25c1.3,0,2.2,0.3,2.8,0.8S28.8,26.2,28.8,27.2
						z M24.3,28.5h0.5c0.4,0,0.7-0.1,1-0.3s0.4-0.5,0.4-0.9c0-0.7-0.4-1-1.1-1h-0.7V28.5z"/>
					<path d="M39.1,34h-2.7v-4.1h-3.1V34h-2.7V24h2.7v3.7h3.1V24h2.7V34z"/>
					<path d="M47.5,34l-0.5-1.9h-3.2L43.3,34h-3l3.3-10h3.6l3.3,10H47.5z M46.5,29.9l-0.4-1.6c-0.1-0.4-0.2-0.8-0.4-1.4
						s-0.2-1-0.3-1.2c0,0.2-0.1,0.6-0.2,1.1c-0.1,0.5-0.4,1.6-0.8,3.2H46.5z"/>
					<path d="M58.3,31c0,0.6-0.2,1.2-0.5,1.7c-0.3,0.5-0.8,0.9-1.4,1.1c-0.6,0.3-1.3,0.4-2.1,0.4c-0.7,0-1.2,0-1.7-0.1
						c-0.5-0.1-0.9-0.3-1.4-0.5v-2.4c0.5,0.3,1,0.5,1.6,0.6c0.6,0.1,1.1,0.2,1.5,0.2c0.4,0,0.7-0.1,0.9-0.2c0.2-0.1,0.3-0.3,0.3-0.5
						c0-0.1,0-0.3-0.1-0.4c-0.1-0.1-0.2-0.2-0.4-0.3c-0.2-0.1-0.6-0.3-1.3-0.6c-0.7-0.3-1.1-0.6-1.5-0.9c-0.3-0.3-0.6-0.6-0.7-1
						s-0.2-0.8-0.2-1.3c0-0.9,0.3-1.6,1-2.2s1.6-0.8,2.8-0.8c1,0,2.1,0.2,3.2,0.7l-0.8,2.1C56.5,26.2,55.7,26,55,26
						c-0.4,0-0.6,0.1-0.8,0.2c-0.2,0.1-0.2,0.3-0.2,0.5c0,0.2,0.1,0.4,0.3,0.5c0.2,0.2,0.8,0.4,1.7,0.8c0.9,0.4,1.5,0.8,1.8,1.2
						C58.1,29.7,58.3,30.3,58.3,31z"/>
					<path d="M65.9,34h-5.9V24h5.9v2.2h-3.2v1.6h3v2.2h-3v1.9h3.2V34z"/>
				</g>
			</g>
			<g class="st3">
				<g>
					<path d="M42,51.7c0,4.2-0.7,7.4-2.1,9.4c-1.4,2-3.5,3.1-6.4,3.1c-2.8,0-4.9-1.1-6.3-3.2c-1.4-2.1-2.1-5.2-2.1-9.3
						c0-4.3,0.7-7.4,2.1-9.5c1.4-2,3.5-3,6.4-3c2.8,0,4.9,1.1,6.4,3.2C41.3,44.5,42,47.6,42,51.7z M30.1,51.7c0,3,0.3,5.1,0.8,6.4
						c0.5,1.3,1.4,1.9,2.6,1.9c1.2,0,2.1-0.7,2.6-2s0.8-3.4,0.8-6.4c0-3-0.3-5.1-0.8-6.4c-0.5-1.3-1.4-2-2.6-2c-1.2,0-2.1,0.7-2.6,2
						C30.4,46.5,30.1,48.7,30.1,51.7z"/>
					<path d="M59,63.8h-5.1v-14l0-2.3l0.1-2.5c-0.9,0.9-1.4,1.4-1.8,1.7l-2.8,2.2l-2.5-3.1l7.8-6.2H59V63.8z"/>
				</g>
			</g>
		</g>
	</g>
</g>
<g id="レイヤー_2">
	<g>
		<path id="多角形_17_00000101799122166204718190000010752450508986393515_" class="st2" d="M55.8,0l5.8,13.5l14.6-1.7l-1.7,14.6
			L88,32.2L79.2,44L88,55.8l-13.5,5.8l1.7,14.6l-14.6-1.7L55.8,88L44,79.2L32.2,88l-5.8-13.5l-14.6,1.7l1.7-14.6L0,55.8L8.8,44
			L0,32.2l13.5-5.8l-1.7-14.6l14.6,1.7L32.2,0L44,8.8L55.8,0z"/>
		<g>
			<g class="st3">
				<g>
					<path d="M28.8,27.2c0,1.1-0.3,2-1,2.6c-0.7,0.6-1.6,0.9-2.8,0.9h-0.8V34h-2.7V24H25c1.3,0,2.2,0.3,2.8,0.8S28.8,26.2,28.8,27.2
						z M24.3,28.5h0.5c0.4,0,0.7-0.1,1-0.3s0.4-0.5,0.4-0.9c0-0.7-0.4-1-1.1-1h-0.7V28.5z"/>
					<path d="M39.1,34h-2.7v-4.1h-3.1V34h-2.7V24h2.7v3.7h3.1V24h2.7V34z"/>
					<path d="M47.5,34l-0.5-1.9h-3.2L43.3,34h-3l3.3-10h3.6l3.3,10H47.5z M46.5,29.9l-0.4-1.6c-0.1-0.4-0.2-0.8-0.4-1.4
						s-0.2-1-0.3-1.2c0,0.2-0.1,0.6-0.2,1.1c-0.1,0.5-0.4,1.6-0.8,3.2H46.5z"/>
					<path d="M58.3,31c0,0.6-0.2,1.2-0.5,1.7c-0.3,0.5-0.8,0.9-1.4,1.1c-0.6,0.3-1.3,0.4-2.1,0.4c-0.7,0-1.2,0-1.7-0.1
						c-0.5-0.1-0.9-0.3-1.4-0.5v-2.4c0.5,0.3,1,0.5,1.6,0.6c0.6,0.1,1.1,0.2,1.5,0.2c0.4,0,0.7-0.1,0.9-0.2c0.2-0.1,0.3-0.3,0.3-0.5
						c0-0.1,0-0.3-0.1-0.4c-0.1-0.1-0.2-0.2-0.4-0.3c-0.2-0.1-0.6-0.3-1.3-0.6c-0.7-0.3-1.1-0.6-1.5-0.9c-0.3-0.3-0.6-0.6-0.7-1
						s-0.2-0.8-0.2-1.3c0-0.9,0.3-1.6,1-2.2s1.6-0.8,2.8-0.8c1,0,2.1,0.2,3.2,0.7l-0.8,2.1C56.5,26.2,55.7,26,55,26
						c-0.4,0-0.6,0.1-0.8,0.2c-0.2,0.1-0.2,0.3-0.2,0.5c0,0.2,0.1,0.4,0.3,0.5c0.2,0.2,0.8,0.4,1.7,0.8c0.9,0.4,1.5,0.8,1.8,1.2
						C58.1,29.7,58.3,30.3,58.3,31z"/>
					<path d="M65.9,34h-5.9V24h5.9v2.2h-3.2v1.6h3v2.2h-3v1.9h3.2V34z"/>
				</g>
			</g>
			<g class="st3">
				<g>
					<path d="M42,51.7c0,4.2-0.7,7.4-2.1,9.4c-1.4,2-3.5,3.1-6.4,3.1c-2.8,0-4.9-1.1-6.3-3.2c-1.4-2.1-2.1-5.2-2.1-9.3
						c0-4.3,0.7-7.4,2.1-9.5c1.4-2,3.5-3,6.4-3c2.8,0,4.9,1.1,6.4,3.2C41.3,44.5,42,47.6,42,51.7z M30.1,51.7c0,3,0.3,5.1,0.8,6.4
						c0.5,1.3,1.4,1.9,2.6,1.9c1.2,0,2.1-0.7,2.6-2s0.8-3.4,0.8-6.4c0-3-0.3-5.1-0.8-6.4c-0.5-1.3-1.4-2-2.6-2c-1.2,0-2.1,0.7-2.6,2
						C30.4,46.5,30.1,48.7,30.1,51.7z"/>
					<path d="M63.2,63.8h-17v-3.6l6.1-6.2c1.8-1.8,3-3.1,3.5-3.8c0.6-0.7,1-1.4,1.2-2c0.2-0.6,0.4-1.2,0.4-1.9c0-1-0.3-1.7-0.8-2.2
						s-1.3-0.7-2.1-0.7c-0.9,0-1.9,0.2-2.7,0.6c-0.9,0.4-1.8,1-2.8,1.8l-2.8-3.3c1.2-1,2.2-1.7,3-2.2c0.8-0.4,1.6-0.7,2.6-1
						c0.9-0.2,2-0.3,3.1-0.3c1.5,0,2.9,0.3,4,0.8s2.1,1.3,2.7,2.3c0.6,1,1,2.1,1,3.4c0,1.1-0.2,2.2-0.6,3.1c-0.4,1-1,2-1.8,3
						s-2.3,2.5-4.4,4.4l-3.1,2.9v0.2h10.6V63.8z"/>
				</g>
			</g>
		</g>
	</g>
</g>
<g id="レイヤー_3" class="st0">
	<path id="多角形_17_00000034086462352503725460000000424703767789323675_" class="st4" d="M55.8,0l5.8,13.5l14.6-1.7l-1.7,14.6
		L88,32.2L79.2,44L88,55.8l-13.5,5.8l1.7,14.6l-14.6-1.7L55.8,88L44,79.2L32.2,88l-5.8-13.5l-14.6,1.7l1.7-14.6L0,55.8L8.8,44
		L0,32.2l13.5-5.8l-1.7-14.6l14.6,1.7L32.2,0L44,8.8L55.8,0z"/>
	<g class="st1">
		<g class="st3">
			<g>
				<path d="M28.8,27.2c0,1.1-0.3,2-1,2.6c-0.7,0.6-1.6,0.9-2.8,0.9h-0.8V34h-2.7V24H25c1.3,0,2.2,0.3,2.8,0.8S28.8,26.2,28.8,27.2z
					 M24.3,28.5h0.5c0.4,0,0.7-0.1,1-0.3s0.4-0.5,0.4-0.9c0-0.7-0.4-1-1.1-1h-0.7V28.5z"/>
				<path d="M39.1,34h-2.7v-4.1h-3.1V34h-2.7V24h2.7v3.7h3.1V24h2.7V34z"/>
				<path d="M47.5,34l-0.5-1.9h-3.2L43.3,34h-3l3.3-10h3.6l3.3,10H47.5z M46.5,29.9l-0.4-1.6c-0.1-0.4-0.2-0.8-0.4-1.4
					s-0.2-1-0.3-1.2c0,0.2-0.1,0.6-0.2,1.1c-0.1,0.5-0.4,1.6-0.8,3.2H46.5z"/>
				<path d="M58.3,31c0,0.6-0.2,1.2-0.5,1.7c-0.3,0.5-0.8,0.9-1.4,1.1c-0.6,0.3-1.3,0.4-2.1,0.4c-0.7,0-1.2,0-1.7-0.1
					c-0.5-0.1-0.9-0.3-1.4-0.5v-2.4c0.5,0.3,1,0.5,1.6,0.6c0.6,0.1,1.1,0.2,1.5,0.2c0.4,0,0.7-0.1,0.9-0.2c0.2-0.1,0.3-0.3,0.3-0.5
					c0-0.1,0-0.3-0.1-0.4c-0.1-0.1-0.2-0.2-0.4-0.3c-0.2-0.1-0.6-0.3-1.3-0.6c-0.7-0.3-1.1-0.6-1.5-0.9c-0.3-0.3-0.6-0.6-0.7-1
					s-0.2-0.8-0.2-1.3c0-0.9,0.3-1.6,1-2.2s1.6-0.8,2.8-0.8c1,0,2.1,0.2,3.2,0.7l-0.8,2.1C56.5,26.2,55.7,26,55,26
					c-0.4,0-0.6,0.1-0.8,0.2c-0.2,0.1-0.2,0.3-0.2,0.5c0,0.2,0.1,0.4,0.3,0.5c0.2,0.2,0.8,0.4,1.7,0.8c0.9,0.4,1.5,0.8,1.8,1.2
					C58.1,29.7,58.3,30.3,58.3,31z"/>
				<path d="M65.9,34h-5.9V24h5.9v2.2h-3.2v1.6h3v2.2h-3v1.9h3.2V34z"/>
			</g>
		</g>
		<g class="st3">
			<g>
				<path d="M42,51.7c0,4.2-0.7,7.4-2.1,9.4c-1.4,2-3.5,3.1-6.4,3.1c-2.8,0-4.9-1.1-6.3-3.2c-1.4-2.1-2.1-5.2-2.1-9.3
					c0-4.3,0.7-7.4,2.1-9.5c1.4-2,3.5-3,6.4-3c2.8,0,4.9,1.1,6.4,3.2C41.3,44.5,42,47.6,42,51.7z M30.1,51.7c0,3,0.3,5.1,0.8,6.4
					c0.5,1.3,1.4,1.9,2.6,1.9c1.2,0,2.1-0.7,2.6-2s0.8-3.4,0.8-6.4c0-3-0.3-5.1-0.8-6.4c-0.5-1.3-1.4-2-2.6-2c-1.2,0-2.1,0.7-2.6,2
					C30.4,46.5,30.1,48.7,30.1,51.7z"/>
				<path d="M62.3,45c0,1.5-0.5,2.8-1.4,3.9C60,49.9,58.7,50.6,57,51v0.1c2,0.2,3.4,0.8,4.4,1.8c1,0.9,1.5,2.2,1.5,3.8
					c0,2.3-0.8,4.2-2.5,5.5c-1.7,1.3-4.1,2-7.3,2c-2.6,0-5-0.4-7-1.3v-4.4c0.9,0.5,2,0.9,3.1,1.2s2.2,0.4,3.4,0.4
					c1.7,0,2.9-0.3,3.8-0.9c0.8-0.6,1.2-1.5,1.2-2.8c0-1.1-0.5-1.9-1.4-2.4s-2.4-0.7-4.4-0.7h-1.8v-3.9h1.9c1.9,0,3.3-0.2,4.1-0.7
					c0.9-0.5,1.3-1.3,1.3-2.5c0-1.8-1.2-2.8-3.5-2.8c-0.8,0-1.6,0.1-2.4,0.4s-1.7,0.7-2.7,1.4l-2.4-3.5c2.2-1.6,4.9-2.4,7.9-2.4
					c2.5,0,4.5,0.5,6,1.5S62.3,43.1,62.3,45z"/>
			</g>
		</g>
	</g>
</g>
</svg>
