<?xml version="1.0" encoding="utf-8"?>
<!-- Generator: Adobe Illustrator 26.5.0, SVG Export Plug-In . SVG Version: 6.00 Build 0)  -->
<svg version="1.1" id="レイヤー_1" xmlns="http://www.w3.org/2000/svg" xmlns:xlink="http://www.w3.org/1999/xlink" x="0px"
	 y="0px" viewBox="0 0 40.8 30" style="enable-background:new 0 0 40.8 30;" xml:space="preserve">
<style type="text/css">
	.st0{fill:#E8EFF8;}
</style>
<g id="グループ_1920" transform="translate(0 0)">
	<path id="パス_101" class="st0" d="M18.8,20.6c0,5.2-4.2,9.4-9.4,9.4C5.3,30,0,27.1,0,20C0,8.1,11.7,0,14.5,0
		c1.4,0.1,2.4,1.2,2.4,2.6c0,1.2-0.4,1.6-2,3c-1.9,1.8-2.6,4.5-3,6.1C15.9,12.8,18.7,16.5,18.8,20.6 M40.8,20.6
		c0,5.2-4.1,9.4-9.3,9.4c0,0,0,0,0,0c-4.1,0-9.4-2.9-9.4-10c0-11.9,11.6-20,14.5-20c1.3,0.1,2.4,1.2,2.4,2.6c0,1.2-0.4,1.6-2,3
		c-1.9,1.8-2.7,4.5-3.1,6.1C38,12.8,40.8,16.4,40.8,20.6"/>
</g>
</svg>
