<?xml version="1.0" encoding="utf-8"?>
<!-- Generator: Adobe Illustrator 26.5.0, SVG Export Plug-In . SVG Version: 6.00 Build 0)  -->
<svg version="1.1" id="レイヤー_1" xmlns="http://www.w3.org/2000/svg" xmlns:xlink="http://www.w3.org/1999/xlink" x="0px"
	 y="0px" viewBox="0 0 40.8 30" style="enable-background:new 0 0 40.8 30;" xml:space="preserve">
<style type="text/css">
	.st0{fill:#E8EFF8;}
</style>
<g id="グループ_1920" transform="translate(0 0)">
	<path id="パス_101" class="st0" d="M22.1,9.4c0-5.2,4.2-9.4,9.4-9.4c4.1,0,9.4,2.9,9.4,10c0,11.9-11.6,20-14.5,20
		c-1.4-0.1-2.4-1.2-2.4-2.6c0-1.2,0.4-1.6,2-3c1.9-1.8,2.6-4.5,3-6.1C24.9,17.2,22.1,13.5,22.1,9.4 M0,9.4C0,4.2,4.1,0,9.3,0
		c0,0,0,0,0,0c4.1,0,9.4,2.9,9.4,10C18.7,21.9,7,30,4.1,30c-1.3-0.1-2.4-1.2-2.4-2.6c0-1.2,0.4-1.6,2-3c1.9-1.8,2.7-4.5,3.1-6.1
		C2.8,17.2,0,13.6,0,9.4"/>
</g>
</svg>
